<?xml version="1.0" encoding="UTF-8" standalone="no"?>
<svg width="1364px" height="472px" viewBox="0 0 1364 472" version="1.1" xmlns="http://www.w3.org/2000/svg" xmlns:xlink="http://www.w3.org/1999/xlink" xmlns:sketch="http://www.bohemiancoding.com/sketch/ns">
    <!-- Generator: Sketch 3.0.3 (7891) - http://www.bohemiancoding.com/sketch -->
    <title>bck-map</title>
    <desc>Created with Sketch.</desc>
    <defs>
        <rect id="path-1" x="0" y="0" width="1364" height="472"></rect>
        <rect id="path-3" x="0" y="0" width="1364" height="472"></rect>
        <rect id="path-5" x="0" y="0" width="1364" height="472"></rect>
    </defs>
    <g id="Page-1" stroke="none" stroke-width="1" fill="none" fill-rule="evenodd" sketch:type="MSPage">
        <g id="bck-map" sketch:type="MSLayerGroup">
            <g id="Group-6">
                <g id="mask-2"></g>
                <g id="Combined-Shape-Copy-3" fill="#FAFAFA" sketch:type="MSShapeGroup">
                    <rect id="path-1" x="0" y="0" width="1364" height="472"></rect>
                </g>
                <g id="Group-19-Copy-Clipped">
                    <mask id="mask-2" sketch:name="path-1" fill="white">
                        <use xlink:href="#path-1"></use>
                    </mask>
                    <g id="path-1"></g>
                    <g id="Group-19-Copy" mask="url(#mask-2)">
                        <g transform="translate(-598.000000, -25.000000)" id="Group">
                            <g>
                                <path d="M1186,25 L1186,340.039673 L1207.54297,486.835938" id="Line" stroke="#DDDDDD" stroke-width="16" sketch:type="MSShapeGroup"></path>
                                <path d="M1280,25 L1280,340.039673 L1313.23047,384.902344 L1280,477.070312 L1280,624.846958" id="Line-Copy-5" stroke="#DDDDDD" stroke-width="16" sketch:type="MSShapeGroup"></path>
                                <path d="M1501,24.8554688 L1501,339.652954" id="Line-Copy-7" stroke="#DDDDDD" stroke-width="16" sketch:type="MSShapeGroup"></path>
                                <path d="M1300.53125,0.15625 L1384.37891,116.492188 L1384.37891,393.039063 L1385.46484,456.792969" id="Line-Copy-6" stroke="#DDDDDD" stroke-width="16" sketch:type="MSShapeGroup"></path>
                                <path d="M1075,24 L1075,524.004028" id="Line-Copy-2" stroke="#DDDDDD" stroke-width="16" sketch:type="MSShapeGroup"></path>
                                <path d="M1020,25 L1020,658.460938" id="Line-Copy-4" stroke="#DDDDDD" stroke-width="8" sketch:type="MSShapeGroup"></path>
                                <path d="M1921,25 L1936.36719,640.664062" id="Line-Copy-12" stroke="#DDDDDD" stroke-width="8" sketch:type="MSShapeGroup"></path>
                                <path d="M1757,25 L1757,633.34375" id="Line-Copy-13" stroke="#DDDDDD" stroke-width="8" sketch:type="MSShapeGroup"></path>
                                <path d="M1919.40625,29.09375 L1757.74609,231.3125 L1541.32031,448.695312" id="Line-Copy-14" stroke="#DDDDDD" stroke-width="8" sketch:type="MSShapeGroup"></path>
                                <path d="M910.839844,25 L910.839844,671.0625" id="Line-Copy-8" stroke="#DDDDDD" stroke-width="8" sketch:type="MSShapeGroup"></path>
                                <path d="M780.855469,25 L780.855469,650.429688" id="Line-Copy-9" stroke="#DDDDDD" stroke-width="8" sketch:type="MSShapeGroup"></path>
                                <path d="M728.855469,25 L728.855469,668.304688" id="Line-Copy-10" stroke="#DDDDDD" stroke-width="8" sketch:type="MSShapeGroup"></path>
                                <path d="M654.398438,25 L654.398438,672.554688" id="Line-Copy-11" stroke="#DDDDDD" stroke-width="8" sketch:type="MSShapeGroup"></path>
                                <path d="M954,24.5 L954,159.092911" id="Line-Copy-3" stroke="#DDDDDD" stroke-width="16" sketch:type="MSShapeGroup"></path>
                                <path d="M1369,94.0332031 L1385.03763,77.9955725 L1409.92969,3.34375" id="Path-379" stroke="#DDDDDD" stroke-width="16" sketch:type="MSShapeGroup"></path>
                                <path d="M827.84375,10.4296875 L867.75,156.644531 L867.75,445.21875" id="Path-380" stroke="#DDDDDD" stroke-width="16" sketch:type="MSShapeGroup"></path>
                                <path d="M489,158 L2056.05396,158" id="Path-381" stroke="#DDDDDD" stroke-width="16" sketch:type="MSShapeGroup"></path>
                                <path d="M1282,233 L2010.27344,233" id="Path-381-Copy" stroke="#DDDDDD" stroke-width="16" sketch:type="MSShapeGroup"></path>
                                <path d="M0,233 L728.273438,233" id="Path-381-Copy-5" stroke="#DDDDDD" stroke-width="16" sketch:type="MSShapeGroup"></path>
                                <path d="M949,86 L1079,86" id="Path-381-Copy-3" stroke="#DDDDDD" stroke-width="16" sketch:type="MSShapeGroup"></path>
                                <path d="M654.574219,443 L1068.35156,443" id="Path-381-Copy-4" stroke="#DDDDDD" stroke-width="16" sketch:type="MSShapeGroup"></path>
                                <path d="M598,348 L2019.97656,348" id="Path-381-Copy-2" stroke="#DDDDDD" stroke-width="16" sketch:type="MSShapeGroup"></path>
                                <path d="M1460,340 L1460,627.90625" id="Path-387" stroke="#DDDDDD" stroke-width="16" sketch:type="MSShapeGroup"></path>
                                <path d="M535.132812,496.242188 L936.28125,545.203125 L1031.73828,518.335938 L1067.30078,520.082031 L1385.83594,451.046875 L1542.33203,458.980469 L1613.15625,437 L1931.11328,437" id="Path-388" stroke="#DDDDDD" stroke-width="16" sketch:type="MSShapeGroup"></path>
                                <path d="M1538,351 L1538,620.820312" id="Path-395" stroke="#DDDDDD" stroke-width="16" sketch:type="MSShapeGroup"></path>
                            </g>
                        </g>
                    </g>
                </g>
                <g id="Group-22-Clipped">
                    <mask id="mask-4" sketch:name="path-1" fill="white">
                        <use xlink:href="#path-3"></use>
                    </mask>
                    <g id="path-1"></g>
                    <g id="Group-22" mask="url(#mask-4)">
                        <g transform="translate(985.000000, 97.000000)" id="Group">
                            <g>
                                <path d="M29.0213627,4.97973213 C35.6602756,11.6186451 35.6617354,22.38099 29.0213627,29.0213627 L17.0005474,41.042178 L4.97973213,29.0213627 C-1.65918083,22.3824497 -1.66064055,11.6201048 4.97973213,4.97973213 C11.6186451,-1.65918083 22.38099,-1.66064055 29.0213627,4.97973213 L29.0213627,4.97973213 Z" id="Rectangle-621" fill="#FF324B" sketch:type="MSShapeGroup"></path>
                            </g>
                        </g>
                    </g>
                </g>
                <g id="Group-22-Copy-Clipped" fill="#FF324B" sketch:type="MSShapeGroup">
                    <g id="Group-22-Copy" transform="translate(254.000000, 194.000000)">
                        <g id="Group">
                            <path d="M29.0213627,4.97973213 C35.6602756,11.6186451 35.6617354,22.38099 29.0213627,29.0213627 L17.0005474,41.042178 L4.97973213,29.0213627 C-1.65918083,22.3824497 -1.66064055,11.6201048 4.97973213,4.97973213 C11.6186451,-1.65918083 22.38099,-1.66064055 29.0213627,4.97973213 L29.0213627,4.97973213 Z" id="Rectangle-621"></path>
                        </g>
                    </g>
                </g>
                <g id="Group-22-Copy-2-Clipped">
                    <mask id="mask-6" sketch:name="path-1" fill="white">
                        <use xlink:href="#path-5"></use>
                    </mask>
                    <g id="path-1"></g>
                    <g id="Group-22-Copy-2" mask="url(#mask-6)">
                        <g transform="translate(1092.000000, 283.000000)" id="Group">
                            <g>
                                <path d="M29.0213627,4.97973213 C35.6602756,11.6186451 35.6617354,22.38099 29.0213627,29.0213627 L17.0005474,41.042178 L4.97973213,29.0213627 C-1.65918083,22.3824497 -1.66064055,11.6201048 4.97973213,4.97973213 C11.6186451,-1.65918083 22.38099,-1.66064055 29.0213627,4.97973213 L29.0213627,4.97973213 Z" id="Rectangle-621" fill="#FF324B" sketch:type="MSShapeGroup"></path>
                            </g>
                        </g>
                    </g>
                </g>
            </g>
        </g>
    </g>
</svg>